G04 Layer_Color=8388736*
%FSLAX25Y25*%
%MOIN*%
G70*
G01*
G75*
%ADD27R,0.02375X0.12611*%
%ADD28C,0.12611*%
%ADD29C,0.07000*%
%ADD30R,0.07000X0.07000*%
%ADD31C,0.02768*%
D27*
X-166039Y116500D02*
D03*
X-162890D02*
D03*
X-159740D02*
D03*
X-156591D02*
D03*
X-153441D02*
D03*
X-150291D02*
D03*
X-147142D02*
D03*
X-143992D02*
D03*
X-140842D02*
D03*
X-137693D02*
D03*
X-134543D02*
D03*
X-131394D02*
D03*
X-128244D02*
D03*
X-125094D02*
D03*
X-121945D02*
D03*
X-118795D02*
D03*
X-115646D02*
D03*
X-112496D02*
D03*
X-109346D02*
D03*
X-106197D02*
D03*
X-103047D02*
D03*
X-99898D02*
D03*
X-96748D02*
D03*
X-93598D02*
D03*
X-90449D02*
D03*
X-87299D02*
D03*
X-84150D02*
D03*
X-81000D02*
D03*
X-77850D02*
D03*
X-74701D02*
D03*
X-71551D02*
D03*
X-68402D02*
D03*
X-65252D02*
D03*
X-62102D02*
D03*
X-58953D02*
D03*
X-55803D02*
D03*
X-52653D02*
D03*
D28*
X-201484Y10079D02*
D03*
X-12992D02*
D03*
D29*
X-28228Y355748D02*
D03*
X-98228D02*
D03*
Y365748D02*
D03*
X-168228D02*
D03*
X-188228D02*
D03*
X-148228Y355748D02*
D03*
X-128228Y365748D02*
D03*
Y355748D02*
D03*
X-158228Y365748D02*
D03*
Y355748D02*
D03*
X-178228D02*
D03*
Y365748D02*
D03*
X-148228D02*
D03*
X-138228Y355748D02*
D03*
Y365748D02*
D03*
X-118228Y355748D02*
D03*
Y365748D02*
D03*
X-108228Y355748D02*
D03*
Y365748D02*
D03*
X-88228Y355748D02*
D03*
Y365748D02*
D03*
X-78228Y355748D02*
D03*
Y365748D02*
D03*
X-68228Y355748D02*
D03*
Y365748D02*
D03*
X-58228Y355748D02*
D03*
Y365748D02*
D03*
X-48228Y355748D02*
D03*
Y365748D02*
D03*
X-38228Y355748D02*
D03*
Y365748D02*
D03*
X-168228Y355748D02*
D03*
X-28228Y365748D02*
D03*
D30*
X-188228Y355748D02*
D03*
D31*
X-188500Y65500D02*
D03*
Y60000D02*
D03*
X-160583Y55000D02*
D03*
X-166167D02*
D03*
X-171750D02*
D03*
X-177333D02*
D03*
X-182917D02*
D03*
X-171750Y70500D02*
D03*
X-188500D02*
D03*
X-160583D02*
D03*
X-155000D02*
D03*
X-166167D02*
D03*
X-177333D02*
D03*
X-182917D02*
D03*
Y65500D02*
D03*
X-177333D02*
D03*
X-166167D02*
D03*
X-155000D02*
D03*
X-160583D02*
D03*
X-171750D02*
D03*
X-182917Y60000D02*
D03*
X-177333D02*
D03*
X-166167D02*
D03*
X-155000D02*
D03*
X-160583D02*
D03*
X-171750D02*
D03*
X-155000Y55000D02*
D03*
X-188500D02*
D03*
X-44250Y56000D02*
D03*
X-61000D02*
D03*
X-33083D02*
D03*
X-27500D02*
D03*
X-38667D02*
D03*
X-49833D02*
D03*
X-55417D02*
D03*
X-44250Y61000D02*
D03*
X-61000D02*
D03*
X-33083D02*
D03*
X-27500D02*
D03*
X-38667D02*
D03*
X-49833D02*
D03*
X-55417D02*
D03*
X-44250Y66500D02*
D03*
X-61000D02*
D03*
X-33083D02*
D03*
X-27500D02*
D03*
X-38667D02*
D03*
X-49833D02*
D03*
X-55417D02*
D03*
Y71500D02*
D03*
X-49833D02*
D03*
X-38667D02*
D03*
X-27500D02*
D03*
X-33083D02*
D03*
X-61000D02*
D03*
X-44250D02*
D03*
X-46000Y242500D02*
D03*
Y221500D02*
D03*
X-86253Y263253D02*
D03*
X-80000Y240000D02*
D03*
X-49000Y229500D02*
D03*
X-86000Y281500D02*
D03*
X-84000Y179000D02*
D03*
X-41500Y229500D02*
D03*
X-56000Y185000D02*
D03*
X-160000Y133500D02*
D03*
X-74500Y179500D02*
D03*
X-77000Y192000D02*
D03*
X-80000Y179500D02*
D03*
X-89000D02*
D03*
X-45500Y184000D02*
D03*
X-59000D02*
D03*
X-71000D02*
D03*
X-52500D02*
D03*
X-38500Y179000D02*
D03*
X-28000Y260500D02*
D03*
X-33000Y190500D02*
D03*
X-68000Y348000D02*
D03*
M02*
