G04 Layer_Color=16711935*
%FSLAX25Y25*%
%MOIN*%
G70*
G01*
G75*
%ADD28C,0.12611*%
%ADD29C,0.07000*%
%ADD30R,0.07000X0.07000*%
%ADD31C,0.02768*%
%ADD32R,0.01981X0.08674*%
%ADD33R,0.01981X0.08674*%
%ADD34R,0.03800X0.03800*%
%ADD35R,0.04540X0.04343*%
%ADD36R,0.04540X0.04343*%
D28*
X-201484Y10079D02*
D03*
X-12992D02*
D03*
D29*
X-28228Y355748D02*
D03*
X-98228D02*
D03*
Y365748D02*
D03*
X-168228D02*
D03*
X-188228D02*
D03*
X-148228Y355748D02*
D03*
X-128228Y365748D02*
D03*
Y355748D02*
D03*
X-158228Y365748D02*
D03*
Y355748D02*
D03*
X-178228D02*
D03*
Y365748D02*
D03*
X-148228D02*
D03*
X-138228Y355748D02*
D03*
Y365748D02*
D03*
X-118228Y355748D02*
D03*
Y365748D02*
D03*
X-108228Y355748D02*
D03*
Y365748D02*
D03*
X-88228Y355748D02*
D03*
Y365748D02*
D03*
X-78228Y355748D02*
D03*
Y365748D02*
D03*
X-68228Y355748D02*
D03*
Y365748D02*
D03*
X-58228Y355748D02*
D03*
Y365748D02*
D03*
X-48228Y355748D02*
D03*
Y365748D02*
D03*
X-38228Y355748D02*
D03*
Y365748D02*
D03*
X-168228Y355748D02*
D03*
X-28228Y365748D02*
D03*
D30*
X-188228Y355748D02*
D03*
D31*
X-188500Y65500D02*
D03*
Y60000D02*
D03*
X-160583Y55000D02*
D03*
X-166167D02*
D03*
X-171750D02*
D03*
X-177333D02*
D03*
X-182917D02*
D03*
X-171750Y70500D02*
D03*
X-188500D02*
D03*
X-160583D02*
D03*
X-155000D02*
D03*
X-166167D02*
D03*
X-177333D02*
D03*
X-182917D02*
D03*
Y65500D02*
D03*
X-177333D02*
D03*
X-166167D02*
D03*
X-155000D02*
D03*
X-160583D02*
D03*
X-171750D02*
D03*
X-182917Y60000D02*
D03*
X-177333D02*
D03*
X-166167D02*
D03*
X-155000D02*
D03*
X-160583D02*
D03*
X-171750D02*
D03*
X-155000Y55000D02*
D03*
X-188500D02*
D03*
X-44250Y56000D02*
D03*
X-61000D02*
D03*
X-33083D02*
D03*
X-27500D02*
D03*
X-38667D02*
D03*
X-49833D02*
D03*
X-55417D02*
D03*
X-44250Y61000D02*
D03*
X-61000D02*
D03*
X-33083D02*
D03*
X-27500D02*
D03*
X-38667D02*
D03*
X-49833D02*
D03*
X-55417D02*
D03*
X-44250Y66500D02*
D03*
X-61000D02*
D03*
X-33083D02*
D03*
X-27500D02*
D03*
X-38667D02*
D03*
X-49833D02*
D03*
X-55417D02*
D03*
Y71500D02*
D03*
X-49833D02*
D03*
X-38667D02*
D03*
X-27500D02*
D03*
X-33083D02*
D03*
X-61000D02*
D03*
X-44250D02*
D03*
X-46000Y242500D02*
D03*
Y221500D02*
D03*
X-86253Y263253D02*
D03*
X-80000Y240000D02*
D03*
X-49000Y229500D02*
D03*
X-86000Y281500D02*
D03*
X-84000Y179000D02*
D03*
X-41500Y229500D02*
D03*
X-56000Y185000D02*
D03*
X-160000Y133500D02*
D03*
X-74500Y179500D02*
D03*
X-77000Y192000D02*
D03*
X-80000Y179500D02*
D03*
X-89000D02*
D03*
X-45500Y184000D02*
D03*
X-59000D02*
D03*
X-71000D02*
D03*
X-52500D02*
D03*
X-38500Y179000D02*
D03*
X-28000Y260500D02*
D03*
X-33000Y190500D02*
D03*
X-68000Y348000D02*
D03*
D32*
X-78874Y231500D02*
D03*
D33*
X-91532D02*
D03*
X-94063D02*
D03*
X-96595D02*
D03*
X-78874Y255122D02*
D03*
X-81406D02*
D03*
X-83937D02*
D03*
X-86469D02*
D03*
X-89000D02*
D03*
X-91532D02*
D03*
X-94063D02*
D03*
X-96595D02*
D03*
X-81406Y231500D02*
D03*
X-83937D02*
D03*
X-86469D02*
D03*
X-89000D02*
D03*
D34*
X-103500Y273200D02*
D03*
X-103494Y267750D02*
D03*
X-69997Y267800D02*
D03*
X-70004Y273250D02*
D03*
X-54000Y266300D02*
D03*
X-54006Y271750D02*
D03*
X-47000Y271700D02*
D03*
X-46994Y266250D02*
D03*
X-65000Y216700D02*
D03*
X-64994Y211250D02*
D03*
X-52500Y216700D02*
D03*
X-52494Y211250D02*
D03*
X-71000Y216700D02*
D03*
X-70994Y211250D02*
D03*
X-46000Y216700D02*
D03*
X-45994Y211250D02*
D03*
X-59000Y216700D02*
D03*
X-58994Y211250D02*
D03*
X-39000Y216700D02*
D03*
X-38994Y211250D02*
D03*
X-96990Y267800D02*
D03*
X-96996Y273250D02*
D03*
X-82992Y267800D02*
D03*
X-82999Y273250D02*
D03*
X-76495Y267800D02*
D03*
X-76501Y273250D02*
D03*
X-89500Y267800D02*
D03*
X-89506Y273250D02*
D03*
X-17500Y217700D02*
D03*
X-17494Y212250D02*
D03*
X-23500Y217700D02*
D03*
X-23494Y212250D02*
D03*
D35*
X-45874Y248000D02*
D03*
X-55126Y244260D02*
D03*
D36*
Y251740D02*
D03*
M02*
