G04 Layer_Color=2752767*
%FSLAX25Y25*%
%MOIN*%
G70*
G01*
G75*
%ADD43C,0.00200*%
%ADD44C,0.00267*%
D43*
X-202284Y9279D02*
Y10879D01*
X-200684D01*
Y9279D01*
X-202284D01*
X-13792D02*
Y10879D01*
X-12192D01*
Y9279D01*
X-13792D01*
X-188500Y64700D02*
X-189300Y66300D01*
X-187700D01*
X-188500Y64700D01*
Y59200D02*
X-189300Y60800D01*
X-187700D01*
X-188500Y59200D01*
X-160583Y54200D02*
X-161383Y55800D01*
X-159783D01*
X-160583Y54200D01*
X-166167D02*
X-166967Y55800D01*
X-165367D01*
X-166167Y54200D01*
X-171750D02*
X-172550Y55800D01*
X-170950D01*
X-171750Y54200D01*
X-177333D02*
X-178133Y55800D01*
X-176533D01*
X-177333Y54200D01*
X-182917D02*
X-183717Y55800D01*
X-182117D01*
X-182917Y54200D01*
X-171750Y69700D02*
X-172550Y71300D01*
X-170950D01*
X-171750Y69700D01*
X-188500D02*
X-189300Y71300D01*
X-187700D01*
X-188500Y69700D01*
X-160583D02*
X-161383Y71300D01*
X-159783D01*
X-160583Y69700D01*
X-155000D02*
X-155800Y71300D01*
X-154200D01*
X-155000Y69700D01*
X-166167D02*
X-166967Y71300D01*
X-165367D01*
X-166167Y69700D01*
X-177333D02*
X-178133Y71300D01*
X-176533D01*
X-177333Y69700D01*
X-182917D02*
X-183717Y71300D01*
X-182117D01*
X-182917Y69700D01*
Y64700D02*
X-183717Y66300D01*
X-182117D01*
X-182917Y64700D01*
X-177333D02*
X-178133Y66300D01*
X-176533D01*
X-177333Y64700D01*
X-166167D02*
X-166967Y66300D01*
X-165367D01*
X-166167Y64700D01*
X-155000D02*
X-155800Y66300D01*
X-154200D01*
X-155000Y64700D01*
X-160583D02*
X-161383Y66300D01*
X-159783D01*
X-160583Y64700D01*
X-171750D02*
X-172550Y66300D01*
X-170950D01*
X-171750Y64700D01*
X-182917Y59200D02*
X-183717Y60800D01*
X-182117D01*
X-182917Y59200D01*
X-177333D02*
X-178133Y60800D01*
X-176533D01*
X-177333Y59200D01*
X-166167D02*
X-166967Y60800D01*
X-165367D01*
X-166167Y59200D01*
X-155000D02*
X-155800Y60800D01*
X-154200D01*
X-155000Y59200D01*
X-160583D02*
X-161383Y60800D01*
X-159783D01*
X-160583Y59200D01*
X-171750D02*
X-172550Y60800D01*
X-170950D01*
X-171750Y59200D01*
X-155000Y54200D02*
X-155800Y55800D01*
X-154200D01*
X-155000Y54200D01*
X-188500D02*
X-189300Y55800D01*
X-187700D01*
X-188500Y54200D01*
X-44250Y55200D02*
X-45050Y56800D01*
X-43450D01*
X-44250Y55200D01*
X-61000D02*
X-61800Y56800D01*
X-60200D01*
X-61000Y55200D01*
X-33083D02*
X-33883Y56800D01*
X-32283D01*
X-33083Y55200D01*
X-27500D02*
X-28300Y56800D01*
X-26700D01*
X-27500Y55200D01*
X-38667D02*
X-39467Y56800D01*
X-37867D01*
X-38667Y55200D01*
X-49833D02*
X-50633Y56800D01*
X-49033D01*
X-49833Y55200D01*
X-55417D02*
X-56217Y56800D01*
X-54617D01*
X-55417Y55200D01*
X-44250Y60200D02*
X-45050Y61800D01*
X-43450D01*
X-44250Y60200D01*
X-61000D02*
X-61800Y61800D01*
X-60200D01*
X-61000Y60200D01*
X-33083D02*
X-33883Y61800D01*
X-32283D01*
X-33083Y60200D01*
X-27500D02*
X-28300Y61800D01*
X-26700D01*
X-27500Y60200D01*
X-38667D02*
X-39467Y61800D01*
X-37867D01*
X-38667Y60200D01*
X-49833D02*
X-50633Y61800D01*
X-49033D01*
X-49833Y60200D01*
X-55417D02*
X-56217Y61800D01*
X-54617D01*
X-55417Y60200D01*
X-44250Y65700D02*
X-45050Y67300D01*
X-43450D01*
X-44250Y65700D01*
X-61000D02*
X-61800Y67300D01*
X-60200D01*
X-61000Y65700D01*
X-33083D02*
X-33883Y67300D01*
X-32283D01*
X-33083Y65700D01*
X-27500D02*
X-28300Y67300D01*
X-26700D01*
X-27500Y65700D01*
X-38667D02*
X-39467Y67300D01*
X-37867D01*
X-38667Y65700D01*
X-49833D02*
X-50633Y67300D01*
X-49033D01*
X-49833Y65700D01*
X-55417D02*
X-56217Y67300D01*
X-54617D01*
X-55417Y65700D01*
Y70700D02*
X-56217Y72300D01*
X-54617D01*
X-55417Y70700D01*
X-49833D02*
X-50633Y72300D01*
X-49033D01*
X-49833Y70700D01*
X-38667D02*
X-39467Y72300D01*
X-37867D01*
X-38667Y70700D01*
X-27500D02*
X-28300Y72300D01*
X-26700D01*
X-27500Y70700D01*
X-33083D02*
X-33883Y72300D01*
X-32283D01*
X-33083Y70700D01*
X-61000D02*
X-61800Y72300D01*
X-60200D01*
X-61000Y70700D01*
X-44250D02*
X-45050Y72300D01*
X-43450D01*
X-44250Y70700D01*
X-46000Y241700D02*
X-46800Y243300D01*
X-45200D01*
X-46000Y241700D01*
Y220700D02*
X-46800Y222300D01*
X-45200D01*
X-46000Y220700D01*
X-86253Y262453D02*
X-87053Y264053D01*
X-85453D01*
X-86253Y262453D01*
X-80000Y239200D02*
X-80800Y240800D01*
X-79200D01*
X-80000Y239200D01*
X-49000Y228700D02*
X-49800Y230300D01*
X-48200D01*
X-49000Y228700D01*
X-86000Y280700D02*
X-86800Y282300D01*
X-85200D01*
X-86000Y280700D01*
X-84000Y178200D02*
X-84800Y179800D01*
X-83200D01*
X-84000Y178200D01*
X-41500Y228700D02*
X-42300Y230300D01*
X-40700D01*
X-41500Y228700D01*
X-65000Y183206D02*
X-65800Y184806D01*
X-64200D01*
X-65000Y183206D01*
X-56000Y184200D02*
X-56800Y185800D01*
X-55200D01*
X-56000Y184200D01*
X-160000Y132700D02*
X-160800Y134300D01*
X-159200D01*
X-160000Y132700D01*
X-74500Y178700D02*
X-75300Y180300D01*
X-73700D01*
X-74500Y178700D01*
X-77000Y191200D02*
X-77800Y192800D01*
X-76200D01*
X-77000Y191200D01*
X-80000Y178700D02*
X-80800Y180300D01*
X-79200D01*
X-80000Y178700D01*
X-89000D02*
X-89800Y180300D01*
X-88200D01*
X-89000Y178700D01*
X-45500Y183200D02*
X-46300Y184800D01*
X-44700D01*
X-45500Y183200D01*
X-59000D02*
X-59800Y184800D01*
X-58200D01*
X-59000Y183200D01*
X-71000D02*
X-71800Y184800D01*
X-70200D01*
X-71000Y183200D01*
X-52500D02*
X-53300Y184800D01*
X-51700D01*
X-52500Y183200D01*
X-38500Y178200D02*
X-39300Y179800D01*
X-37700D01*
X-38500Y178200D01*
X-28000Y259700D02*
X-28800Y261300D01*
X-27200D01*
X-28000Y259700D01*
X-33000Y189700D02*
X-33800Y191300D01*
X-32200D01*
X-33000Y189700D01*
X-78000Y285700D02*
X-78800Y287300D01*
X-77200D01*
X-78000Y285700D01*
X-68000Y347200D02*
X-68800Y348800D01*
X-67200D01*
X-68000Y347200D01*
D44*
X-27428Y355748D02*
G03*
X-27428Y355748I-800J0D01*
G01*
X-97428D02*
G03*
X-97428Y355748I-800J0D01*
G01*
Y365748D02*
G03*
X-97428Y365748I-800J0D01*
G01*
X-167428D02*
G03*
X-167428Y365748I-800J0D01*
G01*
X-187428Y355748D02*
G03*
X-187428Y355748I-800J0D01*
G01*
Y365748D02*
G03*
X-187428Y365748I-800J0D01*
G01*
X-147428Y355748D02*
G03*
X-147428Y355748I-800J0D01*
G01*
X-127428Y365748D02*
G03*
X-127428Y365748I-800J0D01*
G01*
Y355748D02*
G03*
X-127428Y355748I-800J0D01*
G01*
X-157428Y365748D02*
G03*
X-157428Y365748I-800J0D01*
G01*
Y355748D02*
G03*
X-157428Y355748I-800J0D01*
G01*
X-177428D02*
G03*
X-177428Y355748I-800J0D01*
G01*
Y365748D02*
G03*
X-177428Y365748I-800J0D01*
G01*
X-147428D02*
G03*
X-147428Y365748I-800J0D01*
G01*
X-137428Y355748D02*
G03*
X-137428Y355748I-800J0D01*
G01*
Y365748D02*
G03*
X-137428Y365748I-800J0D01*
G01*
X-117428Y355748D02*
G03*
X-117428Y355748I-800J0D01*
G01*
Y365748D02*
G03*
X-117428Y365748I-800J0D01*
G01*
X-107428Y355748D02*
G03*
X-107428Y355748I-800J0D01*
G01*
Y365748D02*
G03*
X-107428Y365748I-800J0D01*
G01*
X-87428Y355748D02*
G03*
X-87428Y355748I-800J0D01*
G01*
Y365748D02*
G03*
X-87428Y365748I-800J0D01*
G01*
X-77428Y355748D02*
G03*
X-77428Y355748I-800J0D01*
G01*
Y365748D02*
G03*
X-77428Y365748I-800J0D01*
G01*
X-67428Y355748D02*
G03*
X-67428Y355748I-800J0D01*
G01*
Y365748D02*
G03*
X-67428Y365748I-800J0D01*
G01*
X-57428Y355748D02*
G03*
X-57428Y355748I-800J0D01*
G01*
Y365748D02*
G03*
X-57428Y365748I-800J0D01*
G01*
X-47428Y355748D02*
G03*
X-47428Y355748I-800J0D01*
G01*
Y365748D02*
G03*
X-47428Y365748I-800J0D01*
G01*
X-37428Y355748D02*
G03*
X-37428Y355748I-800J0D01*
G01*
Y365748D02*
G03*
X-37428Y365748I-800J0D01*
G01*
X-167428Y355748D02*
G03*
X-167428Y355748I-800J0D01*
G01*
X-27428Y365748D02*
G03*
X-27428Y365748I-800J0D01*
G01*
M02*
