M48
;Layer_Color=9474304
;FILE_FORMAT=2:5
INCH,LZ
;TYPE=PLATED
T1F00S00C0.00984
T2F00S00C0.03500
T3F00S00C0.09449
%
T01
X-0038667Y0056
Y0061
Y00665
Y00715
X-0033083
Y00665
Y0061
Y0056
X-00275
Y0061
Y00665
Y00715
X-00385Y0179
X-0033Y01905
X-00455Y0184
X-00525
X-0056Y0185
X-0059Y0184
X-0065Y0184006
X-0071Y0184
X-00745Y01795
X-008
X-0084Y0179
X-0089Y01795
X-0077Y0192
X-0061Y00715
Y00665
Y0061
Y0056
X-0055417
Y0061
Y00665
Y00715
X-0049833
Y00665
Y0061
Y0056
X-004425
Y0061
Y00665
Y00715
X-0155Y00705
Y00655
Y006
Y0055
X-0160583
Y006
Y00655
Y00705
X-0166167
Y00655
Y006
Y0055
X-017175
Y006
Y00655
Y00705
X-0177333
Y00655
Y006
Y0055
X-0182917
Y006
Y00655
Y00705
X-01885
Y00655
Y006
Y0055
X-016Y01335
X-008Y024
X-0086253Y0263253
X-0086Y02815
X-0078Y02865
X-0068Y0348
X-0046Y02425
X-0049Y02295
X-0046Y02215
X-00415Y02295
X-0028Y02605
T02
X-0038228Y0355748
X-0028228
X-0028228Y0365748
X-0038228Y0365748
X-0048228
X-0058228
X-0068228
X-0078228
X-0088228
X-0098228
Y0355748
X-0108228
X-0118228
X-0128228
Y0365748
X-0138228
X-0148228
Y0355748
X-0158228
Y0365748
X-0168228
X-0178228
X-0188228
Y0355748
X-0178228
X-0168228
X-0138228
X-0118228Y0365748
X-0108228
X-0088228Y0355748
X-0078228
X-0068228
X-0058228
X-0048228
T03
X-0201484Y0010079
X-0012992
M30
